<?xml version="1.0" standalone="no"?>
<svg xmlns="http://www.w3.org/2000/svg" viewBox="0 0 151.48 52" width="151.48" height="52"><rect fill="none" stroke="#6ec3eb" stroke-width="3" width="148.48" height="49" x="1.5" y="1.5"></rect><g fill="#0019ff" color="#0019ff" transform="translate(12, 11.999999999999998) scale(0.2800001)"><svg width="100.0" height="100.0" x="0.0" y="0.0" viewBox="0 0 100 100"><path d="M50,77.1c3.6,0,7.1-0.7,10.4-2.1c13.8-5.7,20.4-21.6,14.7-35.5C70.9,29.4,61,22.9,50,22.9c-3.6,0-7.1,0.7-10.4,2.1  c-13.8,5.7-20.4,21.6-14.7,35.5C29.1,70.6,39,77.1,50,77.1z M30.3,61.7h5.5c1.1,3.3,2.6,6.5,4.4,9.1C36.2,68.8,32.7,65.7,30.3,61.7z   M71.7,42.6c1.7,5,1.6,10.2,0,14.9h-6c0.5-2.5,0.8-5.1,0.8-7.5c0-2.5-0.2-5-0.7-7.4H71.7z M62.2,50c0,2.4-0.3,5-1,7.5h-9V42.6h9.2  C62,44.9,62.2,47.4,62.2,50z M48,72.2c-3.1-1.4-5.9-5.6-7.7-10.5H48V72.2z M52.3,72.2V61.7H60C58.1,66.7,55.3,70.9,52.3,72.2z   M52.3,38.3V27.6c3.2,1.3,6.2,5.4,8,10.7H52.3z M48,27.6v10.7h-8C41.8,33,44.8,28.9,48,27.6z M48,42.6v14.9h-9c-0.6-2.5-1-5.1-1-7.5  c0-2.5,0.3-5,0.8-7.4H48z M34.7,57.4h-6.3c-1.7-5-1.6-10.2,0-14.9h6.1C34,45,33.8,47.5,33.8,50C33.8,52.3,34.1,54.8,34.7,57.4z   M60.2,70.5c0.6-0.9,1.3-1.9,1.8-3c0.9-1.8,1.8-3.7,2.4-5.8h5.2C67.5,65.4,64.3,68.5,60.2,70.5z M69.7,38.3h-4.9  c-0.7-2.3-1.6-4.6-2.7-6.5c-0.4-0.7-0.8-1.3-1.2-1.9C64.5,31.8,67.5,34.7,69.7,38.3z M39.5,29.6c-0.5,0.7-0.9,1.4-1.3,2.1  c-1.1,2-2,4.2-2.7,6.5h-5.2C32.5,34.7,35.6,31.7,39.5,29.6z M49.5,8.1c10.8-0.1,21.1,3.9,29,11.2l0-3.2c0-1.2,0.9-2.1,2.1-2.1  c0,0,0,0,0,0c1.2,0,2.1,0.9,2.1,2.1l0.1,8.3c0,1.2-0.9,2.1-2.1,2.1l-8.3,0.1c0,0,0,0,0,0c-1.2,0-2.1-0.9-2.1-2.1  c0-1.2,0.9-2.1,2.1-2.1l3.2,0c-7.1-6.5-16.2-10.1-25.9-10c-10.1,0.1-19.5,4.1-26.5,11.3C12.9,34.1,9.6,49.1,14.5,62.8  c0.4,1.1-0.2,2.3-1.3,2.7c-0.2,0.1-0.5,0.1-0.7,0.1c-0.9,0-1.7-0.5-2-1.4C7.9,56.9,7.4,49,9,41.4c1.6-7.8,5.5-15,11.1-20.7  C27.8,12.7,38.3,8.2,49.5,8.1z M76.9,76.3c10.2-10.4,13.4-25.4,8.5-39.1c-0.4-1.1,0.2-2.3,1.3-2.7c1.1-0.4,2.3,0.2,2.7,1.3  c2.6,7.3,3.2,15.2,1.6,22.8c-1.6,7.8-5.5,15-11.1,20.7c-7.8,8-18.3,12.5-29.5,12.6c-0.2,0-0.3,0-0.5,0c-10.7,0-20.7-4-28.5-11.2  l0,3.2c0,1.2-0.9,2.1-2.1,2.1c0,0,0,0,0,0c-1.2,0-2.1-0.9-2.1-2.1l-0.1-8.3c0-0.6,0.2-1.1,0.6-1.5c0.4-0.4,0.9-0.6,1.5-0.6l8.3-0.1  c1.2,0,2.1,0.9,2.1,2.1c0,1.2-0.9,2.1-2.1,2.1l-3.2,0C39.4,91.4,62.7,90.9,76.9,76.3z"></path></svg></g><path fill="#0019ff" fill-rule="nonzero" d="M2.26 19.30Q1.30 19.30 0 18.94L0 18.94L0 16.56Q0.50 16.73 0.94 16.73L0.94 16.73Q1.80 16.73 2.03 16.08Q2.26 15.43 2.26 14.16L2.26 14.16L2.26 1.25L5.76 0.96L5.76 14.45Q5.76 16.78 4.96 18.04Q4.15 19.30 2.26 19.30L2.26 19.30ZM11.71 19.27Q10.39 19.27 9.55 18.35Q8.71 17.42 8.71 15.86L8.71 15.86L8.71 5.74L12.07 5.45L12.07 14.50Q12.07 15.46 12.38 15.88Q12.70 16.30 13.34 16.30L13.34 16.30Q13.85 16.30 14.42 16.04Q15 15.79 15.46 15.24L15.46 15.24L15.46 5.74L18.84 5.45L18.84 18.82L15.46 19.10L15.46 17.38Q14.62 18.34 13.62 18.80Q12.62 19.27 11.71 19.27L11.71 19.27ZM25.78 19.27Q23.78 19.27 22.56 18.37Q21.34 17.47 20.98 15.86L20.98 15.86L23.59 15Q23.69 15.46 23.95 15.82L23.95 15.82Q24.50 16.61 25.56 16.61L25.56 16.61Q26.16 16.61 26.71 16.34Q27.26 16.08 27.26 15.53L27.26 15.53Q27.26 14.78 26.23 14.38L26.23 14.38L23.40 13.22Q22.27 12.74 21.67 11.78Q21.07 10.82 21.07 9.43L21.07 9.43Q21.07 8.14 21.71 7.20Q22.34 6.26 23.39 5.77Q24.43 5.28 25.63 5.28L25.63 5.28Q27.14 5.28 28.42 6.16Q29.69 7.03 30.12 8.54L30.12 8.54L27.34 9.41Q27.24 9 27 8.59L27 8.59Q26.47 7.78 25.66 7.78L25.66 7.78Q25.06 7.78 24.62 8.05Q24.19 8.33 24.19 8.86L24.19 8.86Q24.19 9.48 25.37 10.01L25.37 10.01L27.77 10.99Q29.04 11.59 29.76 12.50Q30.48 13.42 30.48 14.95L30.48 14.95Q30.48 16.34 29.81 17.32Q29.14 18.29 28.06 18.78Q26.98 19.27 25.78 19.27L25.78 19.27ZM37.18 19.22Q35.54 19.22 34.42 18.40Q33.29 17.57 33.29 15.46L33.29 15.46L33.29 7.99L31.42 7.99L31.56 5.45L33.38 5.45L33.72 2.52L36.65 2.11L36.65 5.45L39.43 5.45L39.29 7.99L36.67 7.99L36.67 15.43Q36.67 16.15 37.03 16.46Q37.39 16.78 38.09 16.78L38.09 16.78Q38.47 16.78 39.38 16.63L39.38 16.63L39.38 18.96Q39.29 18.98 38.63 19.10Q37.97 19.22 37.18 19.22L37.18 19.22ZM46.32 19.30Q43.22 19.30 41.96 16.49Q40.70 13.68 40.70 9.58L40.70 9.58Q40.70 7.37 41.28 5.33Q41.86 3.29 43.14 1.96Q44.42 0.62 46.39 0.62L46.39 0.62Q47.90 0.62 49.04 1.56Q50.18 2.50 50.80 4.00Q51.41 5.50 51.41 7.13L51.41 7.13L48 7.30Q48 6.22 47.64 4.84Q47.28 3.46 46.20 3.46L46.20 3.46Q45.07 3.46 44.64 5.26Q44.21 7.06 44.21 9.58L44.21 9.58Q44.21 12.70 44.69 14.58Q45.17 16.46 46.54 16.46L46.54 16.46Q47.50 16.46 47.90 15.32Q48.31 14.18 48.43 12.55L48.43 12.55L51.43 12.84Q51.43 14.57 50.86 16.04Q50.28 17.52 49.13 18.41Q47.98 19.30 46.32 19.30L46.32 19.30ZM57.12 18.82L53.76 19.10L53.76 1.39L57.12 0.96L57.12 18.82ZM63.43 3.58L60.07 3.72L60.07 0.24L63.43 0L63.43 3.58ZM63.41 18.82L60.05 19.10L60.05 5.74L63.41 5.45L63.41 18.82ZM70.54 19.27Q69 19.27 67.91 18.31Q66.82 17.35 66.26 15.77Q65.71 14.18 65.71 12.34L65.71 12.34Q65.71 10.51 66.25 8.90Q66.79 7.30 67.90 6.29Q69 5.28 70.61 5.28L70.61 5.28Q71.83 5.28 72.80 5.89Q73.78 6.50 74.33 7.61Q74.88 8.71 74.93 10.13L74.93 10.13L71.74 10.27Q71.74 10.18 71.65 9.50Q71.57 8.83 71.29 8.40Q71.02 7.97 70.58 7.97L70.58 7.97Q69.62 7.97 69.36 9.28Q69.10 10.58 69.10 12.22L69.10 12.22Q69.10 13.82 69.37 15.13Q69.65 16.44 70.68 16.44L70.68 16.44Q71.98 16.44 72.02 13.90L72.02 13.90L74.86 14.21Q74.54 16.70 73.61 17.99Q72.67 19.27 70.54 19.27L70.54 19.27ZM87.22 18.26L84.24 19.27L81.50 12.55L80.40 14.02L80.40 18.96L77.04 18.96L77.04 1.39L80.40 0.96L80.40 9.89L83.83 5.45L87.48 5.45L83.69 10.32L87.22 18.26Z" transform="translate(52 16.352)"></path></svg>